<?xml version="1.0" encoding="UTF-8"?>
<svg xmlns="http://www.w3.org/2000/svg" width="325.639" height="145.623" viewBox="0 0 325.639 145.623"><g transform="translate(-137.186 -242.96)"><g transform="translate(0 172.913)"><path d="M215.682,379.8a16.9,16.9,0,0,1-.317,3.559,7.962,7.962,0,0,1-.845,2.336,3.419,3.419,0,0,1-1.216,1.279,2.847,2.847,0,0,1-1.427.389H140.434a2.564,2.564,0,0,1-1.374-.389,4.034,4.034,0,0,1-1.216-1.279,7.021,7.021,0,0,1-.9-2.336,16.9,16.9,0,0,1-.318-3.559,16.289,16.289,0,0,1,.318-3.449,10.317,10.317,0,0,1,.792-2.392,3.937,3.937,0,0,1,1.162-1.447,2.542,2.542,0,0,1,1.533-.5h28.535V262.544L142.548,279.12a11.525,11.525,0,0,1-3.223,1.335,2.083,2.083,0,0,1-1.954-.5,4.2,4.2,0,0,1-1-2.392,27.818,27.818,0,0,1-.264-4.228,28.124,28.124,0,0,1,.158-3.225,10.376,10.376,0,0,1,.476-2.225,4.8,4.8,0,0,1,.9-1.558,8.441,8.441,0,0,1,1.532-1.335l31.494-21.248a3.611,3.611,0,0,1,1.057-.556,16.224,16.224,0,0,1,1.584-.444,12.3,12.3,0,0,1,2.219-.278q1.269-.056,3.17-.056a33.518,33.518,0,0,1,4.227.223,11.156,11.156,0,0,1,2.643.612,2.351,2.351,0,0,1,1.268,1,2.747,2.747,0,0,1,.318,1.28V372.011h24.73a2.78,2.78,0,0,1,1.585.5,3.716,3.716,0,0,1,1.215,1.447,8.97,8.97,0,0,1,.741,2.392,19.649,19.649,0,0,1,.264,3.449" transform="translate(1.081 -172.361)" fill="#818386"/><path d="M275.626,352.718h3.282a4.106,4.106,0,0,1,2.715.832,3.681,3.681,0,0,1,0,5.036,4.081,4.081,0,0,1-2.715.84h-2.135v5.823h-1.147Zm1.147,5.539h1.848a4.158,4.158,0,0,0,1.3-.176,2.308,2.308,0,0,0,.852-.47,1.683,1.683,0,0,0,.463-.689,2.542,2.542,0,0,0,.143-.859,2.471,2.471,0,0,0-.143-.84,1.757,1.757,0,0,0-.463-.7,2.16,2.16,0,0,0-.852-.47,4.4,4.4,0,0,0-1.3-.168h-1.848Z" transform="translate(2.188 -171.486)" fill="#1a1818"/><path d="M297.117,359.007a7.556,7.556,0,0,1-.445,2.637,6.417,6.417,0,0,1-1.236,2.08,5.686,5.686,0,0,1-1.864,1.372,5.748,5.748,0,0,1-4.667,0,5.689,5.689,0,0,1-1.865-1.372,6.4,6.4,0,0,1-1.234-2.08,8.011,8.011,0,0,1,0-5.275,6.4,6.4,0,0,1,1.234-2.078,5.678,5.678,0,0,1,1.865-1.373,5.748,5.748,0,0,1,4.667,0,5.675,5.675,0,0,1,1.864,1.373,6.419,6.419,0,0,1,1.236,2.078,7.562,7.562,0,0,1,.445,2.638m-1.242,0a6.656,6.656,0,0,0-.319-2.061,5.352,5.352,0,0,0-.916-1.727,4.341,4.341,0,0,0-6.8,0,5.413,5.413,0,0,0-.916,1.727,6.853,6.853,0,0,0,0,4.124,5.43,5.43,0,0,0,.916,1.726,4.339,4.339,0,0,0,6.8,0,5.369,5.369,0,0,0,.916-1.726,6.664,6.664,0,0,0,.319-2.062m-2.264-6.815h-1.05l-1.322-1.91-1.322,1.91h-1.051l1.737-2.548h1.273Z" transform="translate(2.266 -171.51)" fill="#1a1818"/><path d="M301.87,364.079h5.257v1.168h-6.4v-12.53h1.147Z" transform="translate(2.388 -171.486)" fill="#1a1818"/><path d="M311.193,364.079h6.037v1.168h-7.185v-12.53h6.994v1.167h-5.846v4.266h5.464v1.168h-5.464Z" transform="translate(2.462 -171.486)" fill="#1a1818"/><path d="M332,354.79a2.409,2.409,0,0,0-2.182-1.221,2.956,2.956,0,0,0-.877.133,2.324,2.324,0,0,0-.772.406,2.015,2.015,0,0,0-.549.708,2.346,2.346,0,0,0-.207,1.019,1.883,1.883,0,0,0,.429,1.318,3.4,3.4,0,0,0,1.068.769,11.058,11.058,0,0,0,1.393.54,6.045,6.045,0,0,1,1.393.637,3.478,3.478,0,0,1,1.068,1.053,3.223,3.223,0,0,1,.429,1.788,3.5,3.5,0,0,1-.327,1.53,3.462,3.462,0,0,1-.86,1.142,3.958,3.958,0,0,1-1.194.709,3.79,3.79,0,0,1-1.33.247,4.609,4.609,0,0,1-1.967-.433,3.84,3.84,0,0,1-1.584-1.424l1.051-.833A2.9,2.9,0,0,0,328,363.984a2.793,2.793,0,0,0,1.54.417,2.591,2.591,0,0,0,.858-.151,2.37,2.37,0,0,0,1.335-1.159,2.083,2.083,0,0,0,.222-.975,2.176,2.176,0,0,0-.247-1.088,2.261,2.261,0,0,0-.653-.726,4.038,4.038,0,0,0-.924-.487c-.346-.129-.7-.259-1.067-.389a10.921,10.921,0,0,1-1.066-.442,3.622,3.622,0,0,1-.924-.628,2.8,2.8,0,0,1-.653-.957,3.656,3.656,0,0,1-.246-1.442,3.741,3.741,0,0,1,.308-1.574,3.247,3.247,0,0,1,.83-1.116,3.377,3.377,0,0,1,1.171-.654,4.279,4.279,0,0,1,1.338-.214,4.346,4.346,0,0,1,1.736.337,3.807,3.807,0,0,1,1.45,1.186Z" transform="translate(2.588 -171.488)" fill="#1a1818"/><path d="M347.863,358.985a7.548,7.548,0,0,1-.447,2.637,6.4,6.4,0,0,1-1.235,2.08,5.671,5.671,0,0,1-1.864,1.372,5.748,5.748,0,0,1-4.667,0,5.671,5.671,0,0,1-1.864-1.372,6.378,6.378,0,0,1-1.234-2.08,8.009,8.009,0,0,1,0-5.274,6.374,6.374,0,0,1,1.234-2.079,5.689,5.689,0,0,1,1.864-1.373,5.748,5.748,0,0,1,4.667,0,5.688,5.688,0,0,1,1.864,1.373,6.394,6.394,0,0,1,1.235,2.079,7.552,7.552,0,0,1,.447,2.637m-1.243,0a6.626,6.626,0,0,0-.318-2.061,5.353,5.353,0,0,0-.916-1.727,4.337,4.337,0,0,0-6.8,0,5.392,5.392,0,0,0-.916,1.727,6.856,6.856,0,0,0,0,4.125,5.415,5.415,0,0,0,.916,1.725,4.334,4.334,0,0,0,6.8,0,5.375,5.375,0,0,0,.916-1.725,6.639,6.639,0,0,0,.318-2.063" transform="translate(2.668 -171.488)" fill="#1a1818"/><path d="M360.759,363.269a4.806,4.806,0,0,1-.709.9,4.576,4.576,0,0,1-.965.735,5.243,5.243,0,0,1-1.17.487,4.887,4.887,0,0,1-1.329.175,5.5,5.5,0,0,1-2.334-.495,5.669,5.669,0,0,1-1.863-1.372,6.377,6.377,0,0,1-1.235-2.079,8.012,8.012,0,0,1,0-5.275,6.387,6.387,0,0,1,1.235-2.079,5.7,5.7,0,0,1,1.863-1.373,5.534,5.534,0,0,1,2.334-.495,5.2,5.2,0,0,1,2.1.461,4.312,4.312,0,0,1,1.8,1.522l-1,.833a2.975,2.975,0,0,0-.478-.6,3.485,3.485,0,0,0-.693-.53,4,4,0,0,0-.836-.372,2.923,2.923,0,0,0-.892-.142,4.2,4.2,0,0,0-1.944.443,4.455,4.455,0,0,0-1.456,1.186,5.348,5.348,0,0,0-.916,1.726,6.836,6.836,0,0,0,0,4.125,5.379,5.379,0,0,0,.916,1.726,4.477,4.477,0,0,0,1.456,1.185,4.2,4.2,0,0,0,1.944.442,4.417,4.417,0,0,0,.884-.089,3.4,3.4,0,0,0,.86-.3,3.211,3.211,0,0,0,.8-.575,4.18,4.18,0,0,0,.693-.911Z" transform="translate(2.784 -171.488)" fill="#1a1818"/><rect width="1.147" height="12.531" transform="translate(366.905 181.231)" fill="#1a1818"/><path d="M369.43,365.248h-1.337L373,352.718h1.115l4.906,12.53h-1.337l-1.243-3.292h-5.767Zm1.673-4.46h4.892l-2.438-6.583Z" transform="translate(2.922 -171.486)" fill="#1a1818"/><path d="M383.021,364.079h5.257v1.168h-6.4v-12.53h1.148Z" transform="translate(3.032 -171.486)" fill="#1a1818"/><path d="M275.626,373.789h3.282a4.106,4.106,0,0,1,2.715.832,3.681,3.681,0,0,1,0,5.036,4.076,4.076,0,0,1-2.715.841h-2.135v5.822h-1.147Zm1.147,5.539h1.848a4.159,4.159,0,0,0,1.3-.176,2.322,2.322,0,0,0,.852-.469,1.687,1.687,0,0,0,.463-.69,2.536,2.536,0,0,0,.143-.858,2.472,2.472,0,0,0-.143-.841,1.758,1.758,0,0,0-.463-.7,2.173,2.173,0,0,0-.852-.47,4.4,4.4,0,0,0-1.3-.168h-1.848Z" transform="translate(2.188 -171.318)" fill="#1a1818"/><path d="M297.117,380.079a7.551,7.551,0,0,1-.445,2.637,6.408,6.408,0,0,1-1.236,2.08,5.631,5.631,0,0,1-8.4,0,6.386,6.386,0,0,1-1.234-2.08,8.008,8.008,0,0,1,0-5.274,6.391,6.391,0,0,1,1.234-2.079,5.627,5.627,0,0,1,8.4,0,6.413,6.413,0,0,1,1.236,2.079,7.563,7.563,0,0,1,.445,2.637m-1.242,0a6.656,6.656,0,0,0-.319-2.061,5.364,5.364,0,0,0-.916-1.727,4.341,4.341,0,0,0-6.8,0,5.424,5.424,0,0,0-.916,1.727,6.853,6.853,0,0,0,0,4.123,5.418,5.418,0,0,0,.916,1.726,4.337,4.337,0,0,0,6.8,0,5.357,5.357,0,0,0,.916-1.726,6.664,6.664,0,0,0,.319-2.062m-2.264-6.814h-1.05l-1.322-1.911-1.322,1.911h-1.051l1.737-2.549h1.273Z" transform="translate(2.266 -171.343)" fill="#1a1818"/><path d="M301.87,385.151h5.257v1.168h-6.4V373.79h1.147Z" transform="translate(2.388 -171.318)" fill="#1a1818"/><path d="M311.193,385.151h6.037v1.168h-7.185V373.79h6.994v1.167h-5.846v4.266h5.464v1.168h-5.464Z" transform="translate(2.462 -171.318)" fill="#1a1818"/><path d="M326.476,386.32h-1.338l4.906-12.53h1.116l4.906,12.53h-1.338l-1.243-3.291h-5.766Zm1.672-4.46h4.892l-2.438-6.583Z" transform="translate(2.581 -171.318)" fill="#1a1818"/><path d="M338.76,373.79h3.74a6.066,6.066,0,0,1,2.11.389,5.657,5.657,0,0,1,1.911,1.177,5.917,5.917,0,0,1,1.379,1.964,7.39,7.39,0,0,1,0,5.477,5.945,5.945,0,0,1-1.379,1.956,5.653,5.653,0,0,1-1.911,1.176,6.067,6.067,0,0,1-2.11.389h-3.74Zm1.147,11.362h2.23a5.352,5.352,0,0,0,2.239-.432,4.615,4.615,0,0,0,1.577-1.151,4.71,4.71,0,0,0,.932-1.629,6.023,6.023,0,0,0,0-3.769,4.724,4.724,0,0,0-.932-1.63,4.623,4.623,0,0,0-1.577-1.149,5.337,5.337,0,0,0-2.239-.434h-2.23Z" transform="translate(2.689 -171.318)" fill="#1a1818"/><path d="M351.894,373.79h3.743a6.075,6.075,0,0,1,2.111.389,5.657,5.657,0,0,1,1.911,1.177,5.9,5.9,0,0,1,1.378,1.964,7.39,7.39,0,0,1,0,5.477,5.928,5.928,0,0,1-1.378,1.956,5.653,5.653,0,0,1-1.911,1.176,6.074,6.074,0,0,1-2.111.389h-3.743Zm1.147,11.362h2.23a5.356,5.356,0,0,0,2.239-.432,4.624,4.624,0,0,0,1.577-1.151,4.709,4.709,0,0,0,.932-1.629,6.022,6.022,0,0,0,0-3.769,4.724,4.724,0,0,0-.932-1.63,4.632,4.632,0,0,0-1.577-1.149,5.34,5.34,0,0,0-2.239-.434h-2.23Z" transform="translate(2.794 -171.318)" fill="#1a1818"/><rect width="1.148" height="12.531" transform="translate(368.083 202.471)" fill="#1a1818"/><path d="M380.071,384.34a4.743,4.743,0,0,1-.709.9,4.509,4.509,0,0,1-.965.735,5.148,5.148,0,0,1-1.17.487,4.885,4.885,0,0,1-1.329.176,5.508,5.508,0,0,1-2.334-.5,5.667,5.667,0,0,1-1.863-1.372,6.375,6.375,0,0,1-1.235-2.079,8.008,8.008,0,0,1,0-5.274,6.38,6.38,0,0,1,1.235-2.08,5.7,5.7,0,0,1,1.863-1.373,5.539,5.539,0,0,1,2.334-.495,5.2,5.2,0,0,1,2.1.461,4.313,4.313,0,0,1,1.8,1.522l-1,.833a2.976,2.976,0,0,0-.478-.6,3.508,3.508,0,0,0-.692-.53,4.028,4.028,0,0,0-.837-.372,2.922,2.922,0,0,0-.892-.141,4.2,4.2,0,0,0-1.944.441,4.477,4.477,0,0,0-1.456,1.186,5.376,5.376,0,0,0-.916,1.726,6.835,6.835,0,0,0,0,4.124,5.388,5.388,0,0,0,.916,1.726,4.5,4.5,0,0,0,1.456,1.186,4.2,4.2,0,0,0,1.944.441,4.422,4.422,0,0,0,.884-.089,3.385,3.385,0,0,0,.861-.3,3.2,3.2,0,0,0,.8-.575,4.181,4.181,0,0,0,.693-.911Z" transform="translate(2.938 -171.321)" fill="#1a1818"/><path d="M386.954,386.319h-1.148V374.957h-3.774v-1.168h8.7v1.168h-3.775Z" transform="translate(3.033 -171.318)" fill="#1a1818"/><path d="M404.818,380.057a7.5,7.5,0,0,1-.447,2.637,6.371,6.371,0,0,1-1.235,2.08,5.661,5.661,0,0,1-1.864,1.372,5.737,5.737,0,0,1-4.667,0,5.672,5.672,0,0,1-1.864-1.372,6.37,6.37,0,0,1-1.234-2.08,8.006,8.006,0,0,1,0-5.273,6.368,6.368,0,0,1,1.234-2.08,5.627,5.627,0,0,1,8.4,0,6.371,6.371,0,0,1,1.235,2.08,7.508,7.508,0,0,1,.447,2.636m-1.242,0a6.627,6.627,0,0,0-.32-2.061,5.342,5.342,0,0,0-.916-1.727,4.338,4.338,0,0,0-6.8,0,5.425,5.425,0,0,0-.916,1.727,6.857,6.857,0,0,0,0,4.125,5.424,5.424,0,0,0,.916,1.725,4.336,4.336,0,0,0,6.8,0,5.344,5.344,0,0,0,.916-1.725,6.638,6.638,0,0,0,.32-2.063" transform="translate(3.121 -171.321)" fill="#1a1818"/><path d="M409.57,385.151h5.257v1.168h-6.4V373.79h1.147Z" transform="translate(3.243 -171.318)" fill="#1a1818"/><path d="M428.745,380.057a7.5,7.5,0,0,1-.447,2.637,6.371,6.371,0,0,1-1.235,2.08,5.673,5.673,0,0,1-1.864,1.372,5.738,5.738,0,0,1-4.667,0,5.673,5.673,0,0,1-1.864-1.372,6.369,6.369,0,0,1-1.234-2.08,8.006,8.006,0,0,1,0-5.273,6.368,6.368,0,0,1,1.234-2.08,5.627,5.627,0,0,1,8.4,0,6.371,6.371,0,0,1,1.235,2.08,7.507,7.507,0,0,1,.447,2.636m-1.242,0a6.627,6.627,0,0,0-.32-2.061,5.343,5.343,0,0,0-.916-1.727,4.338,4.338,0,0,0-6.8,0A5.4,5.4,0,0,0,418.55,378a6.856,6.856,0,0,0,0,4.125,5.4,5.4,0,0,0,.916,1.725,4.332,4.332,0,0,0,6.8,0,5.342,5.342,0,0,0,.916-1.725,6.638,6.638,0,0,0,.32-2.063" transform="translate(3.311 -171.321)" fill="#1a1818"/><path d="M440.687,376.092a4.212,4.212,0,0,0-1.37-1.062,4.545,4.545,0,0,0-3.792.053,4.466,4.466,0,0,0-1.456,1.186,5.346,5.346,0,0,0-.916,1.726,6.835,6.835,0,0,0,0,4.124,5.353,5.353,0,0,0,.916,1.725,4.482,4.482,0,0,0,1.456,1.187,4.2,4.2,0,0,0,1.944.441,5.83,5.83,0,0,0,1.679-.24,5.634,5.634,0,0,0,1.442-.645v-4.2H437.9v-1.168h3.839v6.142a7.8,7.8,0,0,1-2.094.946,7.89,7.89,0,0,1-2.174.328,5.523,5.523,0,0,1-2.334-.5,5.672,5.672,0,0,1-1.864-1.372,6.406,6.406,0,0,1-1.235-2.08,8.023,8.023,0,0,1,0-5.272,6.416,6.416,0,0,1,1.235-2.08,5.7,5.7,0,0,1,1.864-1.373,5.537,5.537,0,0,1,2.334-.495,5.947,5.947,0,0,1,2.332.416,4.927,4.927,0,0,1,1.745,1.265Z" transform="translate(3.426 -171.321)" fill="#1a1818"/><rect width="1.147" height="12.531" transform="translate(449.608 202.471)" fill="#1a1818"/><path d="M452.809,385.151h6.038v1.168h-7.185V373.79h6.993v1.167h-5.846v4.266h5.463v1.168h-5.463Z" transform="translate(3.586 -171.318)" fill="#1a1818"/><path d="M275.186,286.463l19.1-.039,9.158-22.219q.635-1.556,1.109-2.948a19.048,19.048,0,0,0,.74-2.892q.263-1.5.424-3.116a36.178,36.178,0,0,0,.158-3.615,20.769,20.769,0,0,0-.318-4,8.524,8.524,0,0,0-.9-2.559,2.836,2.836,0,0,0-1.691-1.335,9.016,9.016,0,0,0-2.589-.334H220.691a2.936,2.936,0,0,0-1.691.5,3.947,3.947,0,0,0-1.268,1.557,9.314,9.314,0,0,0-.793,2.614,22.252,22.252,0,0,0-.264,3.672,15.514,15.514,0,0,0,1,6.229,3.224,3.224,0,0,0,3.013,2.226h65.63Z" transform="translate(1.72 -172.353)" fill="#818386"/><path d="M254.5,334.211l-20.1,47.417a8.551,8.551,0,0,0-.74,2.5,1.93,1.93,0,0,0,.792,1.78,6.364,6.364,0,0,0,2.907,1.056,36.141,36.141,0,0,0,5.6.333q2.749,0,4.651-.166a10.774,10.774,0,0,0,3.119-.667,5.758,5.758,0,0,0,2.008-1.335,6.707,6.707,0,0,0,1.321-2.169l20.112-48.79Z" transform="translate(1.855 -171.633)" fill="#818386"/><path d="M209.165,289.4h-13v-8.881h36.042V289.4h-13v36.69h-10.04Z" transform="translate(1.557 -172.059)" fill="#007b89"/><path d="M231.155,294.7h9.655v5.02h.128a11.882,11.882,0,0,1,3.668-4.344,9.284,9.284,0,0,1,5.342-1.447q.836,0,1.674.064a8.347,8.347,0,0,1,1.545.258v8.817a14.693,14.693,0,0,0-2.027-.483,13.21,13.21,0,0,0-2.092-.161,10.267,10.267,0,0,0-4.376.772,5.814,5.814,0,0,0-2.479,2.157,8.182,8.182,0,0,0-1.126,3.314,32.328,32.328,0,0,0-.257,4.247v13.065h-9.655Z" transform="translate(1.835 -171.952)" fill="#007b89"/><path d="M286.886,320.577a15.41,15.41,0,0,1-5.857,4.57,17.569,17.569,0,0,1-7.338,1.61A19.712,19.712,0,0,1,266.9,325.6a16.291,16.291,0,0,1-5.535-3.315,15.515,15.515,0,0,1-3.7-5.181,17.569,17.569,0,0,1,0-13.515,15.555,15.555,0,0,1,3.7-5.181,16.338,16.338,0,0,1,5.535-3.314,19.712,19.712,0,0,1,6.789-1.159,15.455,15.455,0,0,1,6.083,1.159,12.674,12.674,0,0,1,4.634,3.314,15.1,15.1,0,0,1,2.928,5.181,20.9,20.9,0,0,1,1.03,6.758v3.025h-22.4a7.642,7.642,0,0,0,2.51,4.409,7.1,7.1,0,0,0,4.763,1.641,7.262,7.262,0,0,0,4.024-1.061,10.812,10.812,0,0,0,2.863-2.736ZM278.711,306.8a5.59,5.59,0,0,0-1.61-4.183,5.719,5.719,0,0,0-4.312-1.739,7.256,7.256,0,0,0-2.831.515,7.079,7.079,0,0,0-2.091,1.32,5.775,5.775,0,0,0-1.352,1.866,6.143,6.143,0,0,0-.547,2.221Z" transform="translate(2.035 -171.952)" fill="#007b89"/><path d="M295.2,294.7h9.268v4.247h.129a7.826,7.826,0,0,1,1.287-1.8,9.39,9.39,0,0,1,2-1.609,11.433,11.433,0,0,1,2.638-1.159,11.051,11.051,0,0,1,3.219-.45,12.219,12.219,0,0,1,5.824,1.351,8.557,8.557,0,0,1,3.829,4.248,10.433,10.433,0,0,1,4.054-4.312,12.183,12.183,0,0,1,5.858-1.287,11.953,11.953,0,0,1,5.309,1.061,8.681,8.681,0,0,1,3.412,2.9,12.235,12.235,0,0,1,1.8,4.312,24.65,24.65,0,0,1,.546,5.31v18.47H334.72V307.77a7.273,7.273,0,0,0-.933-3.765,3.53,3.53,0,0,0-3.315-1.577,6.389,6.389,0,0,0-2.8.547,4.609,4.609,0,0,0-1.8,1.512,6.267,6.267,0,0,0-.965,2.253,12.265,12.265,0,0,0-.29,2.7v16.54H314.96V309.44c0-.557-.023-1.244-.065-2.059a8.265,8.265,0,0,0-.451-2.317,4.443,4.443,0,0,0-1.256-1.867,3.715,3.715,0,0,0-2.541-.772,5.965,5.965,0,0,0-3.025.675,4.6,4.6,0,0,0-1.77,1.8,7.319,7.319,0,0,0-.805,2.542,22.016,22.016,0,0,0-.193,2.96v15.575H295.2Z" transform="translate(2.344 -171.952)" fill="#007b89"/><path d="M352.923,294.7H361.8v4.118h.13a10.6,10.6,0,0,1,1.512-1.7,11.514,11.514,0,0,1,2.188-1.577,13.743,13.743,0,0,1,2.735-1.158,10.816,10.816,0,0,1,3.155-.451,16.125,16.125,0,0,1,6.306,1.191,14.089,14.089,0,0,1,4.861,3.346,14.974,14.974,0,0,1,3.121,5.116,18.646,18.646,0,0,1,1.094,6.5,19.7,19.7,0,0,1-1,6.274,17.246,17.246,0,0,1-2.832,5.31,13.813,13.813,0,0,1-4.472,3.7,12.7,12.7,0,0,1-5.985,1.384,16.584,16.584,0,0,1-5.631-.934,9,9,0,0,1-4.281-3.185h-.128v18.02h-9.654Zm8.881,15.639a8.092,8.092,0,0,0,2.027,5.728,8.509,8.509,0,0,0,11.393,0,9.107,9.107,0,0,0,0-11.456,8.508,8.508,0,0,0-11.393,0,8.094,8.094,0,0,0-2.027,5.728" transform="translate(2.802 -171.952)" fill="#007b89"/><rect width="9.653" height="48.656" transform="translate(396.787 105.375)" fill="#007b89"/><path d="M410.772,284.973a5.606,5.606,0,1,1,1.642,3.958,5.4,5.4,0,0,1-1.642-3.958m.773,9.848H421.2V326.1h-9.654Z" transform="translate(3.261 -172.068)" fill="#007b89"/><path d="M429.29,294.7h9.267v4.247h.129a7.856,7.856,0,0,1,1.287-1.8,9.412,9.412,0,0,1,2-1.609,11.462,11.462,0,0,1,2.639-1.159,11.04,11.04,0,0,1,3.218-.45,13.313,13.313,0,0,1,5.922,1.126,8.563,8.563,0,0,1,3.507,3.122,12.609,12.609,0,0,1,1.705,4.7,35.686,35.686,0,0,1,.452,5.857v17.248h-9.655V310.666q0-1.352-.1-2.8a8.816,8.816,0,0,0-.58-2.671,4.15,4.15,0,0,0-4.344-2.768,5.97,5.97,0,0,0-3.025.675,4.6,4.6,0,0,0-1.77,1.8,7.341,7.341,0,0,0-.8,2.542,22.026,22.026,0,0,0-.193,2.96v15.575H429.29Z" transform="translate(3.408 -171.952)" fill="#007b89"/></g></g></svg>